<?xml version="1.0" encoding="UTF-8" standalone="no"?>
<!-- Created with Inkscape (http://www.inkscape.org/) -->

<svg
   xmlns:dc="http://purl.org/dc/elements/1.1/"
   xmlns:cc="http://creativecommons.org/ns#"
   xmlns:rdf="http://www.w3.org/1999/02/22-rdf-syntax-ns#"
   xmlns:svg="http://www.w3.org/2000/svg"
   xmlns="http://www.w3.org/2000/svg"
   version="1.1"
   width="128"
   height="128"
   id="svg4407">
  <defs
     id="defs4409">
    <filter
       color-interpolation-filters="sRGB"
       id="filter4294">
      <feGaussianBlur
         id="feGaussianBlur4296"
         stdDeviation="1.5771601" />
    </filter>
  </defs>
  <metadata
     id="metadata4412">
    <rdf:RDF>
      <cc:Work
         rdf:about="">
        <dc:format>image/svg+xml</dc:format>
        <dc:type
           rdf:resource="http://purl.org/dc/dcmitype/StillImage" />
        <dc:title></dc:title>
      </cc:Work>
    </rdf:RDF>
  </metadata>
  <g
     transform="translate(0,-924.36218)"
     id="layer1">
    <path
       d="m 62.392065,931.76046 -0.8125,6.4687 c 19.9132,2.6639 35.7533,18.121 39.000005,37.8437 l 6.4375,-1.0624 c -3.7183,-22.543 -21.853805,-40.2305 -44.625005,-43.25 z m -11.375,8.625 c -18.3885,2.4382 -33.0285,16.702 -36.0313,34.9062 l 5.1876,0.875 c 2.6219,-15.9268 15.4507,-28.4114 31.5312,-30.5625 l -0.6875,-5.2187 z m 3.2813,9.1874 -0.8126,0.094 c -2.1071,0.2351 -5.7353,1.0146 -5.5624,1.1875 0.025,0.024 0.9244,-0.07 2.0312,-0.1875 1.1068,-0.1172 2.3149,-0.1865 2.6562,-0.1875 l 0.625,0 -0.5312,0.6875 c -0.6617,0.8625 -1.8539,3.2722 -2.4062,4.9062 -0.2319,0.6861 -0.4063,1.2676 -0.4063,1.3126 0,0.045 3.4673,0.094 7.7187,0.094 4.2515,0 7.75,-0.038 7.75,-0.062 0,-0.024 -0.2531,-0.4759 -0.5312,-1 -0.2781,-0.5241 -0.5,-1.0062 -0.5,-1.0938 -3e-4,-0.087 -0.2451,-0.5544 -0.5625,-1.0312 -0.3173,-0.4768 -0.5937,-0.9344 -0.5937,-1 -7e-4,-0.1787 -0.9793,-1.3451 -1.7813,-2.125 -0.6728,-0.6541 -0.7576,-0.688 -1.75,-0.7812 -0.5715,-0.059 -2.2087,-0.059 -3.6563,-0.031 l -2.6562,0.031 0.5,-0.4063 0.4688,-0.4063 z m 4.7187,0.094 c 0.01,0.01 0.06,0.043 0.125,0.062 0.1987,0.059 0.6424,0.2386 1,0.4063 0.4482,0.2102 1.0977,0.336 2.0937,0.4062 0.7947,0.056 1.7134,0.1577 2.0313,0.2188 0.3179,0.061 0.7388,0.093 0.9375,0.094 0.7157,0 -1.4192,-0.5453 -3.125,-0.8125 -1.7585,-0.2772 -3.1036,-0.4454 -3.0625,-0.375 z m 7.8437,1.5625 c -0.033,0.033 0.4475,0.262 1.0626,0.5313 2.3695,1.0373 5.2341,3.0825 7.4062,5.2812 l 1.2188,1.25 -0.6563,-0.094 c -2.2186,-0.2824 -10.2281,-0.7406 -10.375,-0.5937 -0.053,0.053 0.052,0.4854 0.2187,0.9375 0.6646,1.8017 0.9382,2.6194 1.4063,4.2812 0.9504,3.374 2.1094,8.9218 1.9063,9.125 -0.058,0.059 -5.0608,0.125 -11.0938,0.125 l -10.9688,0 -0.062,0.4376 c -0.3523,2.2373 -0.7645,8.7252 -0.875,13.5312 -0.054,2.3641 -0.1407,4.3125 -0.1876,4.3125 -0.047,-3e-4 -1.903,-0.1977 -4.125,-0.4375 -4.4452,-0.4796 -9.4881,-1.3811 -11.6874,-2.0625 -0.7803,-0.2412 -1.4536,-0.3898 -1.5,-0.3437 -0.1489,0.1488 0.249,3.7265 0.625,5.6562 0.4525,2.323 1.1543,4.7534 1.9687,6.7188 l 0.625,1.50004 1.375,0.7187 c 2.1252,1.1081 6.1678,2.268 10.5625,3.0313 2.8278,0.4903 3.5938,0.5945 3.5938,0.4374 0,-0.1091 -0.1017,-0.797 -0.2188,-1.5312 -0.4788,-3.0017 -0.8121,-6.68494 -1.0312,-11.71884 l -0.094,-2 1.4375,0.094 c 6.8589,0.4223 14.4652,0.4142 20.1875,0 1.4304,-0.1027 2.6247,-0.1561 2.6562,-0.125 0.094,0.091 -0.2543,5.215 -0.5,7.375 -0.2442,2.148 -0.7765,5.38494 -1.125,6.68754 -0.1168,0.4371 -0.2164,0.8906 -0.2187,1 0,0.3249 1.7165,0.086 5.1875,-0.7187 2.4653,-0.5719 3.6512,-0.9398 5.6875,-1.75 1.4112,-0.5616 2.5812,-1.0861 2.625,-1.1563 0.043,-0.07 0.2348,-0.1891 0.4063,-0.2813 0.3016,-0.1612 0.3074,-0.1476 0.094,0.1876 -0.1215,0.1906 -0.4737,0.7647 -0.7813,1.2812 -0.6632,1.1141 -1.9674,2.7444 -3.1874,4.0312 -0.9415,0.9931 -0.5408,0.7201 1.0937,-0.75 1.2178,-1.0952 2.9718,-3.2272 4,-4.8437 0.4143,-0.6513 0.75,-1.2028 0.75,-1.25 0,-0.047 -0.3442,0.1771 -0.7813,0.5 -0.437,0.3229 -0.8124,0.5681 -0.8124,0.5313 0,-0.037 0.3025,-0.7067 0.6562,-1.46884 0.881,-1.898 1.8428,-4.9642 2.2812,-7.2188 0.3728,-1.9162 0.7736,-4.9763 0.6563,-5.0937 -0.036,-0.036 -0.3145,0.04 -0.5937,0.1563 -1.9316,0.807 -10.1112,2.337 -14.0626,2.625 l -1.3124,0.094 -0.094,-4.5937 c -0.086,-4.9181 -0.2467,-7.5074 -0.6875,-10.5626 -0.1515,-1.0502 -0.2813,-2.1598 -0.2813,-2.4687 l 0,-0.5625 3.8126,-0.094 c 2.086,-0.055 5.3912,-0.1985 7.375,-0.3124 1.9838,-0.114 3.6669,-0.1838 3.7187,-0.125 0.1884,0.2109 1.1523,3.9119 1.5,5.75 0.4909,2.5944 0.6781,4.7844 0.6563,7.5624 -0.015,1.8785 0.04,2.3724 0.1874,2.3126 1.4541,-0.5843 1.9599,-0.9106 2.4376,-1.5313 0.5088,-0.6605 0.5131,-0.731 0.5937,-2.2813 0.094,-1.8238 -0.1849,-4.8973 -0.625,-7.0624 -0.469,-2.3077 -1.4562,-5.4637 -1.6875,-5.375 -0.1887,0.072 -1.426,0.2925 -2.5312,0.4374 l -0.5313,0.063 -0.7187,-1.8126 c -1.383,-3.5381 -3.3613,-7.0345 -5.5938,-9.8124 -0.582,-0.7243 -1.0625,-1.3359 -1.0625,-1.375 0,-0.1024 2.0177,0.2726 2.5313,0.4687 0.2383,0.092 0.3606,0.1003 0.2812,0.031 -0.079,-0.069 -0.6996,-0.6221 -1.375,-1.2188 -0.6754,-0.5967 -1.7949,-1.4961 -2.5,-2 -1.2328,-0.8809 -4.6457,-2.9062 -4.9062,-2.9062 -0.069,0 -0.3434,-0.072 -0.5938,-0.1876 -1.3061,-0.5974 -3.2916,-1.3955 -3.3438,-1.3437 z m -20.4062,0.031 c -0.1781,0.048 -0.4995,0.1171 -0.7188,0.1562 -0.6636,0.1196 -4.1586,1.7184 -5.6562,2.5938 -0.7735,0.452 -2.0491,1.2975 -2.8438,1.875 -1.5252,1.1082 -3.803,3.1984 -3.3124,3.0312 0.4359,-0.1488 3.4447,-0.6745 3.5937,-0.625 0.072,0.024 -0.1701,0.4317 -0.5313,0.875 -1.1375,1.3966 -2.7855,4.0041 -3.9062,6.25 -1.0456,2.0952 -2.5439,5.7685 -2.4062,5.9062 0.1037,0.1038 4.3376,0.373 7.875,0.5 4.4043,0.1578 8.4374,0.1968 8.4374,0.063 0,-0.3108 0.6293,-4.4707 0.9376,-6.2188 0.4231,-2.3998 0.8029,-4.1704 1.375,-6.3125 0.2351,-0.8807 0.4374,-1.6577 0.4374,-1.7187 10e-5,-0.1837 -9.7431,0.3228 -11.4374,0.5937 l -0.5938,0.094 0.2812,-0.4374 c 0.4145,-0.5716 2.5086,-2.589 3.625,-3.5 1.1543,-0.9417 2.2299,-1.6172 3.875,-2.5 0.7153,-0.3838 1.1469,-0.6734 0.9688,-0.625 z m -20.4688,19.4374 c -0.028,0 -0.2787,0.7082 -0.5624,1.5626 -1.0362,3.1189 -1.6841,6.9941 -1.6876,10.2187 0,1.4354 0.031,1.6556 0.375,2.3125 0.3349,0.6396 0.5274,0.8138 1.6876,1.4688 0.7245,0.4091 1.5655,0.7955 1.8437,0.875 0.2781,0.079 0.5676,0.1447 0.6563,0.1562 0.1122,0.01 0.1931,-1.0053 0.25,-3.3438 0.1025,-4.2139 0.4816,-6.8592 1.5624,-10.7812 0.2473,-0.8973 0.4381,-1.6553 0.4063,-1.6875 -0.032,-0.032 -0.8994,-0.1572 -1.9063,-0.2813 -1.0068,-0.1241 -2.0106,-0.2955 -2.2187,-0.375 -0.2082,-0.079 -0.3783,-0.125 -0.4063,-0.125 z m -5.875,17.1876 -5.1874,0.7812 c 2.8642,18.70604 18.001,33.36674 36.9374,35.50004 l 0.5313,-5.25 c -16.5507,-1.885 -29.772,-14.678 -32.2813,-31.03124 z m 72.9376,0.5312 c -2.6819,15.86394 -15.4554,28.30724 -31.5,30.43754 l 0.75,5.2187 c 18.317,-2.4516 32.9145,-16.6618 35.9687,-34.78124 l -5.2187,-0.875 z m -65,10.25 0.8124,1.37504 c 0.4503,0.7426 1.2483,1.8595 1.75,2.5 1.2161,1.5527 5.0287,5.2963 6.5313,6.4062 0.6775,0.5006 1.2113,0.8196 1.3437,0.875 -0.055,-0.057 -0.1875,-0.1822 -0.4374,-0.375 -1.9266,-1.4853 -3.926,-3.8833 -5.4063,-6.5 -0.7525,-1.33 -0.9389,-1.5277 -1.5625,-1.8437 -0.3838,-0.1945 -1.2306,-0.8376 -1.875,-1.40634 l -1.1562,-1.0312 z m 40.1562,7.03124 c -0.052,-0.052 -1.3212,0.051 -2.8125,0.2188 -4.0059,0.4514 -8.7939,0.5114 -13.8125,0.1562 -2.213,-0.1565 -4.0799,-0.2636 -4.125,-0.2187 -0.1173,0.1173 0.4924,2.7393 1,4.3125 0.4518,1.4004 1.3185,3.3081 1.625,3.5625 0.099,0.082 1.3581,0.278 2.7812,0.4063 2.9858,0.269 7.3911,0.1715 9.7813,-0.1876 0.7984,-0.12 1.4694,-0.1873 1.5,-0.1562 0.075,0.075 -0.8704,0.7917 -1.2813,0.9688 -0.6669,0.2875 0.6539,-0.018 3,-0.6876 1.8876,-0.5385 4.9312,-1.7177 4.5,-1.75 -0.06,0 -1.124,0.2771 -2.375,0.625 -1.2509,0.3481 -2.6062,0.6693 -3,0.7188 l -0.7187,0.094 0.4375,-0.4688 c 0.6797,-0.7239 1.3418,-1.7646 1.9375,-3.0625 0.6756,-1.4718 1.6898,-4.4039 1.5625,-4.5313 z m 4,5.75 c -0.08,0 -0.4236,0.1523 -0.7812,0.3438 -0.3577,0.1915 -0.5795,0.3438 -0.5,0.3438 0.079,0 0.4236,-0.1523 0.7812,-0.3438 0.3577,-0.1915 0.5794,-0.3438 0.5,-0.3438 z m -30.2188,0.3438 c -0.2455,0.2456 4.8645,2.1629 7.3126,2.75 1.9097,0.4579 1.9951,0.4605 1.3124,-0.1562 -0.5388,-0.4869 -0.7392,-0.5597 -3,-1.0313 -1.3314,-0.2778 -3.132,-0.7529 -4,-1.0625 -0.8679,-0.3096 -1.5943,-0.5311 -1.625,-0.5 z"
       transform="matrix(1.2792304,0,0,1.2792304,-14.181548,-262.69034)"
       id="path4377"
       style="opacity:0.3260002;fill:#000000;fill-opacity:1;stroke:none;filter:url(#filter4294)" />
    <path
       d="m 48.974909,938.17322 c -23.523385,3.1194 -42.2514458,21.36609 -46.0923352,44.65307 l 6.6361354,1.11933 C 12.873107,963.57196 29.282947,947.60153 49.854379,944.84913 z m 4.197538,11.7528 -1.039503,0.12025 c -2.696361,0.30036 -7.334211,1.29534 -7.11559,1.51908 0.03198,0.0371 1.222432,-0.0895 2.638284,-0.23985 1.416108,-0.14865 2.922658,-0.23909 3.35798,-0.23986 l 0.799519,0 -0.679527,0.87947 c -0.846595,1.10295 -2.372717,4.18475 -3.078085,6.27617 -0.300747,0.88087 -0.519751,1.58956 -0.519751,1.67911 l 0,0.0397 c 0,0.0154 4.435348,0.12025 9.873996,0.12025 5.438776,0 9.874124,-0.0308 9.874124,-0.12025 0,-0.0319 -0.287187,-0.61148 -0.639615,-1.27924 -0.352684,-0.67184 -0.639616,-1.28792 -0.639616,-1.39922 0,-0.11129 -0.314178,-0.70383 -0.719567,-1.31913 -0.405132,-0.61608 -0.759479,-1.18713 -0.759479,-1.27924 0,-0.22873 -1.25275,-1.72081 -2.278693,-2.71837 -0.860667,-0.82996 -0.969017,-0.8856 -2.238653,-0.99932 -0.730953,-0.0896 -2.825692,-0.16951 -4.67725,-0.0806 l -3.397892,0.0806 0.639615,-0.51976 0.599703,-0.51975 z m 6.036304,0.12025 c 0.01279,0.0128 0.07676,0.055 0.159905,0.0793 0.254311,0.0755 0.821522,0.30907 1.27923,0.51976 0.573351,0.27004 1.404467,0.43007 2.678325,0.51961 1.015964,0.0755 2.19324,0.19035 2.598501,0.2799 0.406923,0.0525 0.944072,0.12025 1.199278,0.12025 0.915545,0 -1.816123,-0.69424 -3.997595,-1.03937 -2.250422,-0.34809 -3.968813,-0.57131 -3.917644,-0.47971 z m 10.0339,1.99879 c 3.770557,1.93959 6.401919,2.96266 10.793634,7.47544 l 1.599039,1.59904 -0.839559,-0.12025 c -2.838229,-0.36688 -13.082434,-0.94881 -13.272015,-0.75948 -0.0678,0.0678 0.06908,0.58167 0.279767,1.15924 0.849921,2.30467 1.198639,3.35005 1.798982,5.47664 1.215525,4.31638 2.701606,11.45768 2.438597,11.71302 -0.07419,0.0448 -6.474186,0.12024 -14.191527,0.12024 l -14.031622,0 -0.07931,0.55981 c -0.448114,2.86138 -0.977204,11.16089 -1.119326,17.30951 -0.06652,3.02449 -0.165789,5.51663 -0.239984,5.51663 -0.06013,0 -2.43476,-0.2445 -5.276825,-0.5596 -5.686563,-0.6128 -12.136827,-1.72723 -14.950878,-2.59838 -0.9978,-0.30049 -1.84593,-0.56926 -1.918846,-0.47971 -0.190093,0.18958 0.31904,4.76789 0.799519,7.23569 0.57834,2.9729 1.475721,6.121 2.518421,8.6348 l 0.799519,1.9189 1.758942,0.8795 c 2.718748,1.4183 7.889654,2.9415 13.511871,3.9176 3.616897,0.6302 4.597298,0.7224 4.597298,0.5197 0,-0.1399 -0.129841,-1.0199 -0.279895,-1.9588 -0.611601,-3.8398 -1.042061,-8.5516 -1.319142,-14.9913 l -0.120248,-2.5584 1.838893,0.1202 c 8.774242,0.5253 18.504197,0.5253 25.824464,0 1.8293,-0.082 3.323825,-0.2494 3.397893,-0.1598 0.124084,0.1164 -0.324541,6.6714 -0.639616,9.4344 -0.313284,2.7481 -0.996265,6.8887 -1.439135,8.555 -0.148646,0.5581 -0.279767,1.137 -0.279767,1.2792 0,0.4155 2.195799,0.1099 6.636007,-0.9194 3.154071,-0.7316 4.670471,-1.2025 7.275624,-2.2387 1.804994,-0.7192 3.283785,-1.3497 3.357979,-1.4392 0.06013,-0.097 0.301387,-0.286 0.519752,-0.3999 0.383897,-0.2038 0.389909,-0.1879 0.120247,0.2401 -0.154531,0.2444 -0.601621,0.9787 -0.999462,1.6389 -0.848642,1.4251 -2.51663,3.5111 -4.077419,5.1569 l 0.03966,0 c -1.204525,1.2708 -0.731465,0.9209 1.359182,-0.9595 1.558103,-1.4005 3.801617,-4.1279 5.116921,-6.1963 0.52845,-0.8315 0.959423,-1.5094 0.959423,-1.599 0,-0.068 -0.444148,0.2193 -0.999463,0.6397 -0.558128,0.4122 -0.999335,0.7691 -0.999335,0.6796 0,-0.046 0.349487,-0.9034 0.79952,-1.879 1.127002,-2.4277 2.395486,-6.3491 2.958219,-9.2346 0.475747,-2.4509 0.949574,-6.36606 0.79952,-6.51599 -0.05245,-0.0423 -0.359336,0.0499 -0.719567,0.19995 -2.471217,1.03222 -12.974979,2.99034 -18.029218,3.35794 l -1.678862,0.1203 -0.08059,-5.87641 c -0.110014,-6.29189 -0.356649,-9.60382 -0.919383,-13.512 -0.194955,-1.34319 -0.359847,-2.76007 -0.359847,-3.15803 l 0,-0.71958 4.877193,-0.12024 c 2.668091,-0.0678 6.937011,-0.24983 9.474237,-0.39963 2.537609,-0.13445 4.642966,-0.24946 4.717162,-0.1599 0.240879,0.27093 1.476232,5.0046 1.918845,7.35557 0.6258,3.31845 0.839559,6.12035 0.839559,9.67405 -0.02175,2.40559 0.01279,3.00786 0.199816,2.91831 1.860386,-0.74758 2.55015,-1.12726 3.158167,-1.91884 0.65074,-0.8443 0.654578,-0.93487 0.759471,-2.91832 0.120256,-2.33293 -0.236651,-6.26438 -0.799516,-9.03443 -0.600084,-2.95195 -1.866011,-6.98972 -2.158699,-6.87586 -0.241134,0.0818 -1.823415,0.37007 -3.237988,0.55953 l -0.679655,0.0806 -0.919383,-2.35864 c -1.76956,-4.52643 -4.300389,-8.95909 -7.155759,-12.51241 -0.745919,-0.93153 -1.359183,-1.70943 -1.359183,-1.79898 0,-0.12792 2.585325,0.35217 3.238116,0.59958 0.294863,0.17922 0.464617,0.20953 0.35972,0.12024 -0.101055,-0.0883 -0.894566,-0.79427 -1.758941,-1.55913 -3.322414,-2.90547 -7.141983,-5.22809 -11.165078,-7.07691 -1.034898,-0.46338 -1.906525,-0.77393 -1.906525,-0.77393 z m -26.104231,0.0397 c -0.22668,0.0601 -0.64179,0.11001 -0.919512,0.19982 -0.848641,0.15286 -5.319678,2.19887 -7.235582,3.31807 -0.988973,0.57821 -2.621911,1.66286 -3.637875,2.39856 -1.951211,1.41687 -4.867856,4.08815 -4.237323,3.87759 0.557616,-0.18842 4.407716,-0.88906 4.597169,-0.79952 0.09082,0.032 -0.21427,0.54906 -0.679654,1.11933 -1.454997,1.78594 -3.562785,5.12178 -4.99693,7.9952 -1.337051,2.67985 -3.259735,7.37654 -3.078085,7.55538 0.132657,0.12793 5.548663,0.46846 10.07394,0.63962 5.633987,0.23167 10.793379,0.25111 10.793379,0.0806 1.28e-4,-0.39809 0.801437,-5.71905 1.199407,-7.95528 0.54073,-3.07066 1.023256,-5.37455 1.758941,-8.11517 0.300364,-1.12714 0.559535,-2.06917 0.559535,-2.15858 0,-0.2318 -12.464053,0.41422 -14.631069,0.75948 l -0.759608,0.12025 0.39976,-0.55954 c 0.530881,-0.73133 3.169293,-3.31142 4.59717,-4.47731 1.477,-1.20478 2.852428,-2.06864 4.957019,-3.19808 0.919255,-0.48942 1.465613,-0.88905 1.239318,-0.79951 z m -26.184312,24.86491 c -0.0371,0 -0.399375,0.90634 -0.759479,1.99893 -1.325283,3.99018 -2.118789,8.94693 -2.118789,13.07207 0,1.83557 0.0371,2.11354 0.479711,2.95822 0.428414,0.81795 0.674283,1.04347 2.158829,1.87894 0.926803,0.52218 2.005578,1.02197 2.358518,1.11932 0.3578,0.10492 0.725707,0.19982 0.839559,0.19982 0.142122,0.0128 0.246763,-1.2864 0.319808,-4.27749 0.131376,-5.39004 0.615693,-8.73344 1.998668,-13.75173 0.31354,-1.14708 0.553907,-2.06916 0.479712,-2.15858 -0.04094,-0.0447 -1.109988,-0.2419 -2.398557,-0.39989 -1.287929,-0.16489 -2.575091,-0.34244 -2.838229,-0.43966 -0.262753,-0.0998 -0.519751,-0.19995 -0.519751,-0.19995 z m -7.5154783,21.98691 -6.6358796,0.99933 c 3.6635874,23.93039 23.0278099,42.68419 47.2514449,45.41279 l 0.719695,-6.716 C 29.602115,1036.2213 12.648219,1019.8549 9.4386297,998.93654 z m 93.3039903,0.71944 c -3.430886,20.29368 -19.771396,36.17058 -40.295753,38.89688 l 0.959423,6.6758 c 23.431792,-3.1351 42.10549,-21.3132 46.01227,-44.4933 z m -83.149971,13.07228 1.039247,1.759 c 0.575909,0.9505 1.593281,2.3801 2.238653,3.198 1.555671,1.9856 6.432866,6.7756 8.355037,8.1951 0.866423,0.6427 1.549533,1.0485 1.718902,1.1193 -0.07036,-0.074 -0.239727,-0.233 -0.559535,-0.4797 -2.464693,-1.9004 -5.021875,-4.9678 -6.915904,-8.315 -0.96262,-1.6954 -1.201069,-1.9608 -1.998797,-2.3585 -0.490712,-0.2491 -1.573965,-1.0713 -2.398557,-1.799 z m 51.369032,8.9946 c -0.06652,-0.068 -1.690375,0.061 -3.597835,0.2799 -5.124725,0.5797 -11.24968,0.6176 -17.66937,0.1599 -2.831449,-0.1656 -5.20263,-0.3294 -5.276826,-0.2399 -0.150182,0.1499 0.626439,3.504 1.27923,5.5167 0.577829,1.791 1.688456,4.227 2.07875,4.5573 0.126644,0.1053 1.736428,0.3087 3.557796,0.4797 3.819014,0.3453 9.454536,0.2655 12.512536,-0.2 1.021338,-0.1126 1.84465,-0.2893 1.918845,-0.1997 0.09722,0.096 -1.113825,1.0154 -1.639077,1.2393 -0.853119,0.3671 0.836232,-0.027 3.837691,-0.8796 2.414803,-0.6889 6.304303,-2.1891 5.756537,-2.2786 -0.07676,-0.013 -1.438239,0.3567 -3.038173,0.7995 -1.6007,0.4458 -3.334697,0.8698 -3.837691,0.9594 l -0.919382,0.08 0.559662,-0.5995 c 0.86975,-0.9261 1.716088,-2.2172 2.47851,-3.8777 0.863736,-1.8822 2.164714,-5.6387 1.998797,-5.7966 z m 5.116921,7.3555 c -0.102334,0 -0.541497,0.2005 -0.999334,0.4398 -0.456046,0.24 -0.74464,0.4398 -0.639615,0.4398 0.101055,-10e-5 0.541626,-0.2002 0.999335,-0.4398 0.456045,-0.2402 0.744512,-0.4398 0.639614,-0.4398 z m -38.656807,0.4398 c -0.313412,0.3138 6.222304,2.7674 9.3545,3.5179 2.442563,0.5817 2.55232,0.592 1.678863,-0.1998 -0.688994,-0.6228 -0.945736,-0.7114 -3.837693,-1.3192 -1.703039,-0.3544 -4.006293,-0.9617 -5.11692,-1.3592 -1.109605,-0.3904 -2.004555,-0.7292 -2.07875,-0.6397 z"
       id="path4383"
       style="fill:#0d3346;fill-opacity:1;stroke:none" />
    <path
       d="m 63.528969,927.14331 c 29.129228,3.86263 52.327701,26.47316 57.084521,55.31047 l -8.21855,1.3886 c -4.15277,-25.23 -24.436508,-45.02328 -49.910463,-48.43102 l 1.044492,-8.26805 z"
       id="path4387"
       style="fill:#2c6987;fill-opacity:1;stroke:none" />
  </g>
</svg>
