/* XPM */
static char *shaderkit[] = {
/* columns rows colors chars-per-pixel */
"48 48 112 2 ",
"   c #05F41BC825B4",
".  c #07791DE6291C",
"X  c #07501F152A0E",
"o  c #07431EDD2B92",
"O  c #07951C7127D2",
"+  c #07A41CA8281E",
"@  c #07B81E3927E0",
"#  c #08F320392AF6",
"$  c #08C421502D96",
"%  c #08A620DD2EB3",
"&  c #088822222E14",
"*  c #084F22E83035",
"=  c #0946233E303B",
"-  c #098D22632FC2",
";  c #09D8241A313A",
":  c #0897241431D3",
">  c #094F253C3333",
",  c #09A9250731E9",
"<  c #098A249232E1",
"1  c #09C5252132CE",
"2  c #09322652341E",
"3  c #092426183555",
"4  c #0A8A272634B4",
"5  c #094F26C9364D",
"6  c #0A3D277F3796",
"7  c #0A4C27B9366F",
"8  c #0A2A27ED36CE",
"9  c #0A03290A3734",
"0  c #0A07281E37E1",
"q  c #09E72927385D",
"w  c #0B11298338BB",
"e  c #0A6B29AC388E",
"r  c #0B1D2A073950",
"t  c #0A3D2A6C3A83",
"y  c #0AEF2A623A1A",
"u  c #0AC72B1D39EF",
"i  c #0AE52B1F3B00",
"p  c #0BB62B803A8F",
"a  c #0B022C0A3B2E",
"s  c #0B762C933D22",
"d  c #0B4F2D3E3D6C",
"f  c #0B672C5B3E19",
"g  c #0B422D073E1F",
"h  c #0BCA2BC93CA1",
"j  c #0BA22BF53CC4",
"k  c #0C102D173E3E",
"l  c #0BEA2D7B3F5B",
"z  c #0BF22E323F0B",
"x  c #0BB02EC1404A",
"c  c #0BA72F6440DF",
"v  c #0CA02F11416F",
"b  c #0C412FA842B8",
"n  c #0C99301B414A",
"m  c #0C832FC941FD",
"M  c #0CBE3012429B",
"N  c #0C3830E04251",
"B  c #0C7C3063431E",
"V  c #0CDF309F4337",
"C  c #0C3E30F942C8",
"Z  c #0CDF313F437D",
"A  c #0C56315943DA",
"S  c #0CED318C4437",
"D  c #0D8D31B14544",
"F  c #0C68320A44A6",
"G  c #0CC231C044AC",
"H  c #0C5E3278455C",
"J  c #0CF4324E4586",
"K  c #0C6F32C84570",
"L  c #0D21333E458C",
"P  c #0D9032DC4582",
"I  c #0D51326D4607",
"U  c #0C7233324651",
"Y  c #0D1033324649",
"T  c #0C6433394706",
"R  c #0D0C335C46EE",
"E  c #0DBE329E462A",
"W  c #0DA232E4464A",
"Q  c #0CBD33B8466D",
"!  c #0DD633E446EA",
"~  c #1FC44ABE5F4C",
"^  c #1F614BF96171",
"/  c #1FFF4D2C61E1",
"(  c #22A251506968",
")  c #24F6563E7041",
"_  c #249257C5715E",
"`  c #252F573D70FB",
"'  c #26975C9F77A2",
"]  c #26935CEE773B",
"[  c #27625D89789D",
"{  c #27025DDD79E7",
"}  c #27435E3B78EE",
"|  c #295362B97E46",
" . c #2A5F64A280E1",
".. c #2A1A647E811F",
"X. c #2A1064F481CD",
"o. c #2A4D64E1822A",
"O. c #2A48656B8260",
"+. c #2AE265208285",
"@. c #2ADA669F82D1",
"#. c #2A9466308375",
"$. c #2B6D66DB8491",
"%. c #2BA8673184F5",
"&. c #2B0466D1853E",
"*. c #2B31675E8574",
"=. c #2AF667D48643",
"-. c #2B5A68418631",
";. c #2B82693B8693",
":. c #2BA268B98745",
">. c #2C206896868F",
",. c #2C5868D1870D",
"<. c #2C2A696E877E",
"1. c None",
/* pixels */
"1.1.1.1.1.1.1.1.1.1.1.1.1.1.1.1.1.1.1.1.1.1.1.1.1.1.1.1.1.1.1.1.1.1.1.1.1.1.1.1.1.1.1.1.1.1.1.1.",
"1.1.1.1.1.1.1.1.1.1.1.1.1.1.1.1.1.1.1.1.1.1.1.1.:.:.1.1.1.1.1.1.1.1.1.1.1.1.1.1.1.1.1.1.1.1.1.1.",
"1.1.1.1.1.1.1.1.1.1.1.1.1.1.1.1.1.1.1.1.1.1.1.1.:.:.:.<.:.:.1.1.1.1.1.1.1.1.1.1.1.1.1.1.1.1.1.1.",
"1.1.1.1.1.1.1.1.1.1.1.1.1.1.1.1.1.1.1.1.1.1.1.1.:.:.<.<.:.:.:.@.1.1.1.1.1.1.1.1.1.1.1.1.1.1.1.1.",
"1.1.1.1.1.1.1.1.1.1.1.1.1.1.1.1.1.1.1.1.1.1.1.1./ ` | <.:.:.:.:.<.| 1.1.1.1.1.1.1.1.1.1.1.1.1.1.",
"1.1.1.1.1.1.1.1.1.1.1.1.1.1.1.1.1.R 1.1.1.1.1.1.1.1.1.1.( @.:.:.<.<.@.1.1.1.1.1.1.1.1.1.1.1.1.1.",
"1.1.1.1.1.1.1.1.1.1.1.1.1.R R R R R e 1.1.1.1.1.1.1.1.1.1.1.~ @.<.<.<.:.1.1.1.1.1.1.1.1.1.1.1.1.",
"1.1.1.1.1.1.1.1.1.1.1.R R R R R R C 4 1.1.1.1.1.1.1.1.1.1.1.1.1.` :.<.<.:.[ 1.1.1.1.1.1.1.1.1.1.",
"1.1.1.1.1.1.1.1.1.1.R R ! ! C , 1.1.1.1.1.1.1.1.1.1.1.1.1.1.1.1.1.1.@.:.:.<.{ 1.1.1.1.1.1.1.1.1.",
"1.1.1.1.1.1.1.1.R R R R s 1.1.1.1.1.1.1.1.1.1.1.1.1.1.1.1.1.1.1.1.1.1.@.<.<.:.` 1.1.1.1.1.1.1.1.",
"1.1.1.1.1.1.1.R R R C $ 1.1.1.1.1.1.1.R R R R x 1.1.1.1.1.1.1.1.1.1.1.1.@.:.:.:.1.1.1.1.1.1.1.1.",
"1.1.1.1.1.1.R R R c 1.1.1.1.1.1.1.1.1.R R R ! ! 1.1.1.1.1.1.1.1.1.1.1.1.1.@.<.<.%.1.1.1.1.1.1.1.",
"1.1.1.1.1.R R R s 1.1.1.! 1.1.1.1.1.R R ! R R R c 1.1.1.1.n 1.1.1.1.1.1.1.1.:.<.:.{ 1.1.1.1.1.1.",
"1.1.1.1.1.R R c 1.1.1.! s 1.1.1.1.1.1.@ @ # @ @ @ 4 1.1.1.1.C 1.1.1.1.1.1.1.1.:.:.:.1.1.1.1.1.1.",
"1.1.1.1.R R C 1.1.1.1.s R R R C R e 1.1.1.1.1.1.1.1.R C R R E 1.1.1.1.1.1.1.1.@.<.:.| 1.1.1.1.1.",
"1.1.1.R R R @ 1.1.1.1.R R R R R R   1.1.1.1.1.1.1.1.E R R R ! C 1.1.1.1.1.1.1.1.<.:.:.1.1.1.1.1.",
"1.1.1.R R s 1.1.1.1.! ! R ! R R R 1.1.1.1.1.1.1.1.1.R R C R R R e 1.1.1.1.1.1.1.+.:.:.{ 1.1.1.1.",
"1.1.R R R 1.1.1.1.1.! C R C R R C 1.1.1.1.1.1.1.1.1.R R R R C R R 1.1.1.1.1.1.1.1.:.:.:.1.1.1.1.",
"1.1.R R d 1.1.1.1.! R R R R R R d 1.1.1.1.1.1.1.1.1.1.R ! C ! R R p 1.1.1.1.1.1.1.:.:.:./ 1.1.1.",
"1.1.R R @ 1.1.1.1.R R ! ! C R R e 1.1.1.1.1.1.1.1.1.1.R ! R R R R R 1.1.1.1.1.1.1.:.<.<.{ 1.1.1.",
"1.R R R 1.1.R R 1.1.1.1.1.      4 R R R R R R R R R ! 1.@   1.1.1.1.s R 1.1.1.1.1.1.:.:.:.1.1.1.",
"1.! R x 1.1.R R 1.1.1.1.1.1.1.1.R R R C R R ! ! R R ! 1.1.1.1.1.1.1.1.R 1.1.1.1.1.1.:.:.@.1.1.1.",
"1.1.1.1.1.1.R R 1.1.1.1.1.1.1.1.R R R R R R R C R R R   1.1.1.1.1.1.1.R w 1.1.1.1.1.1.1.1.1.1.1.",
"1.1.1.1.1.R R c 1.1.1.1.1.1.1.1.C R R R C R R R C R R , 1.1.1.1.1.1.1.R s 1.1.1.1.1.1.1.1.1.1.1.",
"1.1.1.1.1.R R d 1.1.1.1.1.1.1.1.! ! R R C R R R ! R ! , 1.1.1.1.1.1.1.R s 1.1.1.1.1.1.1.1.1.1.1.",
"1.1.1.1.1.R R e 1.1.1.1.1.1.1.1.! ! C R ! R R C R R C w 1.1.1.1.1.1.1.R C 1.1.1.1.1.1.1.1.1.1.1.",
"1.1.1.1.1.1.R e 1.1.1.1.1.1.1.1.R R ! R ! ! R R R ! ! 9 1.1.1.1.1.1.1.R s 1.1.1.1.1.1.1.1.1.1.1.",
"1.1.1.1.1.1.1.$ 1.1.1.1.1.1.1.1.! C ! C R R R R R C R w 1.1.1.1.1.1.1.1.1.1.1.1.1.1.1.1.1.1.1.1.",
"1.C R R 1.1.1.1.R C R 1.1.1.1.1.! R R R R R R R R R R e 1.1.1.1.R R R 1.1.1.1.R 1.1.1.1.1.1.1.1.",
"1.R R C 1.1.1.1.R ! R R R R R R 1.1.1.1.        1.1.1.4 R ! R R R R R 1.1.1.R R C 1.1.1.1.1.1.1.",
"1.1.R R 1.1.1.1.R C C R R R R R 1.1.1.1.1.1.1.1.1.1.1.R C R R R R R C 1.1.1.R C p 1.1.1.1.1.1.1.",
"1.1.R R 4 1.1.1.R R ! R R R R R 1.1.1.1.1.1.1.1.1.1.1.! ! R R R R R p 1.1.1.R R O 1.1.1.1.1.1.1.",
"1.1.R R C 1.1.1.R R R R R R R R 1.1.1.1.1.1.1.1.1.1.1.R C R R R R R   1.1.R R C 1.1.1.1.1.1.1.1.",
"1.1.1.R R = 1.1.1.R R R R C R R 1.1.1.1.1.1.1.1.1.1.1.R R R R R C C 1.1.1.C R 4 1.1.1.1.1.1.1.1.",
"1.1.1.R R C 1.1.C C R R R R C ! o 1.1.1.1.1.1.1.1.1.1.R R R R R R s 1.1.R R E 1.1.1.1.1.1.1.1.1.",
"1.1.1.1.R R a 1.1.s 1., s C R R , 1.1.1.1.1.1.1.1.1.1.R R R e @ 1.1.1.! R R 4 1.1.1.1.1.1.1.1.1.",
"1.1.1.1.c R R 9 1.1.1.1.1.1.1.@ @ 1.1.1.1.1.1.1.1.1.1.1.1.1.1.1.1.1.1.R R n 1.1.1.1.1.1.1.1.1.1.",
"1.1.1.1.1.R R R 1.1.1.1.1.1.1.1.1.R R R R R R R R R 1.1.1.1.1.1.1.1.R R R 1.1.1.1.1.1.1.1.1.1.1.",
"1.1.1.1.1.1.R R ! 1.1.1.1.1.1.1.1.R C R R R R R R C 1.1.1.1.1.1.1.R R R   1.1.1.1.1.1.1.1.1.1.1.",
"1.1.1.1.1.1.1.R R ! s 1.1.1.1.1.1.1.R R R R R R R # 1.1.1.1.1.1.R R R $ 1.1.1.1.1.1.1.1.1.1.1.1.",
"1.1.1.1.1.1.1.1.R R R C 1.1.1.1.1.1.p p p e p 4 e @ 1.1.1.1.R R R R @ 1.1.1.1.1.1.1.1.1.1.1.1.1.",
"1.1.1.1.1.1.1.1.1.c R R R C 1.1.1.1.1.1.1.1.1.1.1.1.1.1.! R R R C 1.1.1.1.1.1.1.1.1.1.1.1.1.1.1.",
"1.1.1.1.1.1.1.1.1.1.9 R R R R R C 1.1.1.1.1.1.1.1.! R C R R R 4 1.1.1.1.1.1.1.1.1.1.1.1.1.1.1.1.",
"1.1.1.1.1.1.1.1.1.1.1.1.p C R R R R R 1.1.1.1.1.R R R R R e 1.1.1.1.1.1.1.1.1.1.1.1.1.1.1.1.1.1.",
"1.1.1.1.1.1.1.1.1.1.1.1.1.1.= s R R c 1.1.1.1.1.R R s , 1.1.1.1.1.1.1.1.1.1.1.1.1.1.1.1.1.1.1.1.",
"1.1.1.1.1.1.1.1.1.1.1.1.1.1.1.1.1.1.1.1.1.1.1.1.1.1.1.1.1.1.1.1.1.1.1.1.1.1.1.1.1.1.1.1.1.1.1.1.",
"1.1.1.1.1.1.1.1.1.1.1.1.1.1.1.1.1.1.1.1.1.1.1.1.1.1.1.1.1.1.1.1.1.1.1.1.1.1.1.1.1.1.1.1.1.1.1.1.",
"1.1.1.1.1.1.1.1.1.1.1.1.1.1.1.1.1.1.1.1.1.1.1.1.1.1.1.1.1.1.1.1.1.1.1.1.1.1.1.1.1.1.1.1.1.1.1.1."
};
